HIERARCHY
ROOT Hips
{
	OFFSET 0.000000 0.000000 0.000000
	CHANNELS 6 Xposition Yposition Zposition Xrotation Yrotation Zrotation
	JOINT LeftUpLeg_virtual
	{
		OFFSET 0.000000 0.000000 0.000000
		CHANNELS 3 Xrotation Yrotation Zrotation
		JOINT LeftUpLeg
		{
			OFFSET 11.394100 -6.187798 -0.413800
			CHANNELS 3 Xrotation Yrotation Zrotation
			JOINT LeftLeg
			{
				OFFSET 0.430247 -32.302673 3.732800
				CHANNELS 3 Xrotation Yrotation Zrotation
				JOINT LeftFoot
				{
					OFFSET -0.430247 -48.264931 -6.423300
					CHANNELS 3 Xrotation Yrotation Zrotation
					JOINT LeftToeBase
					{
						OFFSET 4.230900 -16.068199 23.438400
						CHANNELS 3 Xrotation Yrotation Zrotation
						JOINT LeftToe_End
						{
							OFFSET 4.510700 0.695400 19.974600
							CHANNELS 3 Xrotation Yrotation Zrotation
							End Site
							{
								OFFSET 0 0 0
							}
						}
					}
				}
			}
		}
	}
	JOINT RightUpLeg_virtual
	{
		OFFSET 0.000000 0.000000 0.000000
		CHANNELS 3 Xrotation Yrotation Zrotation
		JOINT RightUpLeg
		{
			OFFSET -11.333700 -6.187798 -0.413800
			CHANNELS 3 Xrotation Yrotation Zrotation
			JOINT RightLeg
			{
				OFFSET -0.430392 -32.302628 3.733000
				CHANNELS 3 Xrotation Yrotation Zrotation
				JOINT RightFoot
				{
					OFFSET 0.430392 -48.264973 -6.423500
					CHANNELS 3 Xrotation Yrotation Zrotation
					JOINT RightToeBase
					{
						OFFSET -4.230900 -16.068199 23.438400
						CHANNELS 3 Xrotation Yrotation Zrotation
						JOINT RightToe_End
						{
							OFFSET -4.510700 0.695400 19.974600
							CHANNELS 3 Xrotation Yrotation Zrotation
							End Site
							{
								OFFSET 0 0 0
							}
						}
					}
				}
			}
		}
	}
	JOINT Spine_virtual
	{
		OFFSET 0.000000 0.000000 0.000000
		CHANNELS 3 Xrotation Yrotation Zrotation
		JOINT Spine
		{
			OFFSET -0.002400 12.777504 0.315300
			CHANNELS 3 Xrotation Yrotation Zrotation
			JOINT Spine1
			{
				OFFSET -0.002067 5.816869 0.032633
				CHANNELS 3 Xrotation Yrotation Zrotation
				JOINT Spine1_split
				{
					OFFSET -0.002067 5.816869 0.032633
					CHANNELS 3 Xrotation Yrotation Zrotation
					JOINT Spine2
					{
						OFFSET -0.002067 5.816869 0.032633
						CHANNELS 3 Xrotation Yrotation Zrotation
						JOINT Neck_virtual
						{
							OFFSET 0.000000 0.000000 0.000000
							CHANNELS 3 Xrotation Yrotation Zrotation
							JOINT Neck
							{
								OFFSET -0.003700 21.199493 -0.826900
								CHANNELS 3 Xrotation Yrotation Zrotation
								JOINT Head
								{
									OFFSET 0.000000 20.442200 4.834800
									CHANNELS 3 Xrotation Yrotation Zrotation
									JOINT HeadTop_End
									{
										OFFSET 0.000000 34.668396 4.968400
										CHANNELS 3 Xrotation Yrotation Zrotation
										End Site
										{
											OFFSET 0 0 0
										}
									}
								}
							}
						}
						JOINT LeftShoulder_virtual
						{
							OFFSET 0.000000 0.000000 0.000000
							CHANNELS 3 Xrotation Yrotation Zrotation
							JOINT LeftShoulder
							{
								OFFSET 3.288150 8.794197 -1.372250
								CHANNELS 3 Xrotation Yrotation Zrotation
								JOINT LeftShoulder_split
								{
									OFFSET 3.288150 8.794197 -1.372250
									CHANNELS 3 Xrotation Yrotation Zrotation
									JOINT LeftArm
									{
										OFFSET 11.953299 -2.279007 -0.146200
										CHANNELS 3 Xrotation Yrotation Zrotation
										JOINT LeftForeArm
										{
											OFFSET 18.448900 0.000000 0.000000
											CHANNELS 3 Xrotation Yrotation Zrotation
											JOINT LeftHand
											{
												OFFSET 29.527798 0.000000 0.000000
												CHANNELS 3 Xrotation Yrotation Zrotation
												End Site
												{
													OFFSET 0 0 0
												}
											}
										}
									}
								}
							}
						}
						JOINT RightShoulder_virtual
						{
							OFFSET 0.000000 0.000000 0.000000
							CHANNELS 3 Xrotation Yrotation Zrotation
							JOINT RightShoulder
							{
								OFFSET -3.249400 8.794197 -1.372250
								CHANNELS 3 Xrotation Yrotation Zrotation
								JOINT RightShoulder_split
								{
									OFFSET -3.249400 8.794197 -1.372250
									CHANNELS 3 Xrotation Yrotation Zrotation
									JOINT RightArm
									{
										OFFSET -11.953299 -2.279007 -0.146200
										CHANNELS 3 Xrotation Yrotation Zrotation
										JOINT RightForeArm
										{
											OFFSET -18.448900 0.000000 0.000000
											CHANNELS 3 Xrotation Yrotation Zrotation
											JOINT RightHand
											{
												OFFSET -29.527802 0.000000 0.000000
												CHANNELS 3 Xrotation Yrotation Zrotation
												End Site
												{
													OFFSET 0 0 0
												}
											}
										}
									}
								}
							}
						}
					}
				}
			}
		}
	}
}
MOTION
Frames: 9
Frame Time: 0.03333333
-0.118343 98.576828 0.729729 0.000000 0.000000 0.000000 -0.587373 -0.362627 -0.337918 -14.137161 4.482390 8.449928 26.313918 4.047045 1.357162 -10.893058 1.348308 -9.490065 0.000002 -0.000002 -0.000003 0.000000 0.000000 0.000000 -0.587373 -0.362627 -0.337918 -13.595930 1.524212 -1.865237 26.676419 -1.699284 -2.522909 -12.381372 -0.781979 5.346689 -0.000027 0.000001 0.000000 0.000000 0.000000 0.000000 -0.587373 -0.362627 -0.337918 0.361308 -0.186751 0.289917 -1.750145 -0.199001 0.196420 0.000000 0.000000 0.000000 0.000000 0.000000 0.000000 -1.750109 -0.188404 0.203701 -0.289761 -0.205837 -0.385588 4.702785 -2.136756 3.065841 0.000000 0.000000 0.000000 -1.750109 -0.188404 0.203701 0.993407 -13.202430 -11.017493 0.000000 0.000000 0.000000 16.778880 -19.384208 -67.597371 0.000006 -17.727281 -0.000001 0.000000 0.000000 0.000000 -1.750109 -0.188404 0.203701 1.651817 9.058840 10.503890 0.000000 0.000000 0.000000 6.412952 25.534618 64.587485 -0.000008 12.370162 0.000007 0.000000 0.000000 0.000000 
-0.059149 98.591263 0.702431 0.000000 0.000000 0.000000 -0.563345 -0.331110 -0.253284 -14.161713 4.574682 8.277103 26.258415 3.979995 1.448003 -10.855559 1.341860 -9.504858 -0.000024 -0.000001 0.000028 0.000000 0.000000 0.000000 -0.563345 -0.331110 -0.253284 -13.637034 1.469412 -2.077771 26.680010 -1.680304 -2.424045 -12.359810 -0.786527 5.354447 -0.000082 -0.000000 0.000006 0.000000 0.000000 0.000000 -0.563345 -0.331110 -0.253284 0.389143 -0.144628 0.244500 -1.758987 -0.152911 0.185722 0.000000 0.000000 0.000000 0.000000 0.000000 0.000000 -1.758853 -0.144486 0.191302 -0.234934 -0.223743 -0.429562 4.682464 -2.228106 3.016739 0.000000 0.000000 0.000000 -1.758853 -0.144486 0.191302 0.994575 -13.331120 -11.067195 0.000000 0.000000 0.000000 16.711234 -19.428801 -67.559409 0.000005 -17.694300 -0.000001 0.000000 0.000000 0.000000 -1.758853 -0.144486 0.191302 1.655696 9.081050 10.518683 0.000000 0.000000 0.000000 6.559966 25.463661 64.487313 0.000001 12.345265 0.000002 0.000000 0.000000 0.000000 
0.037504 98.622261 0.679070 0.000000 0.000000 0.000000 -0.564057 -0.354735 -0.171846 -14.094742 4.576767 8.141118 26.162309 4.030573 1.402203 -10.818818 1.332492 -9.482055 -0.000016 0.000003 0.000020 0.000000 0.000000 0.000000 -0.564057 -0.354735 -0.171846 -13.612220 1.444453 -2.317647 26.603703 -1.597598 -2.312732 -12.301589 -0.792707 5.371299 -0.000047 -0.000000 0.000003 0.000000 0.000000 0.000000 -0.564057 -0.354735 -0.171846 0.467901 -0.091067 0.205367 -1.726140 -0.094856 0.195358 0.000000 0.000000 0.000000 0.000000 0.000000 0.000000 -1.725988 -0.088045 0.198933 -0.219294 -0.239945 -0.477885 4.665765 -2.296425 2.991047 0.000000 0.000000 0.000000 -1.725988 -0.088045 0.198933 0.991735 -13.323547 -11.148005 0.000000 0.000000 0.000000 16.457985 -19.698184 -67.507322 0.000004 -17.673550 -0.000018 0.000000 0.000000 0.000000 -1.725988 -0.088045 0.198933 1.661474 9.155292 10.510907 0.000000 0.000000 0.000000 6.689135 25.490508 64.313007 -0.000007 12.254241 -0.000008 0.000000 0.000000 0.000000 
0.168205 98.673508 0.630703 0.000000 0.000000 0.000000 -0.578069 -0.423040 -0.085986 -13.972949 4.483250 7.917706 26.014749 4.261209 1.411470 -10.753019 1.322924 -9.526786 -0.000024 -0.000001 0.000035 0.000000 0.000000 0.000000 -0.578069 -0.423040 -0.085986 -13.552818 1.454206 -2.570414 26.441646 -1.502122 -2.226057 -12.179147 -0.801759 5.424295 -0.000010 -0.000000 0.000004 0.000000 0.000000 0.000000 -0.578069 -0.423040 -0.085986 0.596742 -0.018362 0.159661 -1.620709 -0.015913 0.201612 0.000000 0.000000 0.000000 0.000000 0.000000 0.000000 -1.620686 -0.010844 0.202122 -0.183771 -0.218591 -0.586454 4.269680 -2.307493 3.202154 0.000000 0.000000 0.000000 -1.620686 -0.010844 0.202122 0.989896 -13.432068 -11.270858 0.000000 0.000000 0.000000 15.974706 -19.827774 -67.490076 -0.000002 -17.727046 -0.000004 0.000000 0.000000 0.000000 -1.620686 -0.010844 0.202122 1.677952 9.285100 10.547345 0.000000 0.000000 0.000000 6.831332 25.636371 64.012027 0.000007 12.156165 0.000010 0.000000 0.000000 0.000000 
0.327307 98.698677 0.504456 0.000000 0.000000 0.000000 -0.505416 -0.508789 -0.044570 -14.064146 4.002875 7.491935 26.036567 4.967694 1.669834 -10.684636 1.333325 -9.766660 -0.000013 0.000001 0.000013 0.000000 0.000000 0.000000 -0.505416 -0.508789 -0.044570 -13.710454 1.129533 -2.731018 26.361701 -1.062744 -2.355568 -12.033534 -0.812546 5.491468 -0.000086 -0.000001 -0.000000 0.000000 0.000000 0.000000 -0.505416 -0.508789 -0.044570 0.792380 0.024794 0.082319 -1.416821 0.032360 0.182690 0.000000 0.000000 0.000000 0.000000 0.000000 0.000000 -1.416967 0.034539 0.181314 -0.196661 -0.283262 -0.562395 3.587527 -2.527386 3.208845 0.000000 0.000000 0.000000 -1.416967 0.034539 0.181314 0.988383 -13.373516 -11.280133 0.000000 0.000000 0.000000 15.352537 -20.245306 -67.493675 0.000010 -17.915200 0.000000 0.000000 0.000000 0.000000 -1.416967 0.034539 0.181314 1.697832 9.302905 10.690756 0.000000 0.000000 0.000000 6.871395 26.197382 63.484669 0.000011 12.093670 -0.000006 0.000000 0.000000 0.000000 
0.469545 98.692909 0.291979 0.000000 0.000000 0.000000 -0.325797 -0.657670 -0.137069 -14.466307 3.313180 7.228387 26.312641 5.861624 1.885384 -10.642658 1.353344 -10.076541 -0.000035 0.000006 0.000048 0.000000 0.000000 0.000000 -0.325797 -0.657670 -0.137069 -14.069846 0.904974 -2.563002 26.321421 -0.686423 -2.694610 -11.837942 -0.827622 5.619592 -0.000036 0.000001 0.000004 0.000000 0.000000 0.000000 -0.325797 -0.657670 -0.137069 1.035862 0.044778 0.011315 -1.126574 0.055725 0.161242 0.000000 0.000000 0.000000 0.000000 0.000000 0.000000 -1.126867 0.056063 0.159081 -0.282474 -0.337568 -0.460437 2.552432 -2.645780 3.422394 0.000000 0.000000 0.000000 -1.126867 0.056063 0.159081 0.989572 -13.280080 -11.185789 0.000000 0.000000 0.000000 14.662741 -20.828008 -67.491421 -0.000005 -18.275450 -0.000003 0.000000 0.000000 0.000000 -1.126867 0.056063 0.159081 1.729814 9.398952 10.871322 0.000000 0.000000 0.000000 6.780472 27.024055 62.846736 0.000014 12.048628 -0.000003 0.000000 0.000000 0.000000 
0.571461 98.618385 -0.010326 0.000000 0.000000 0.000000 -0.029464 -1.076522 -0.396306 -15.228069 2.655628 7.410194 26.966926 6.798209 1.780521 -10.700246 1.369008 -10.259000 -0.000032 -0.000000 0.000039 0.000000 0.000000 0.000000 -0.029464 -1.076522 -0.396306 -14.806004 1.141784 -2.185667 26.491519 -0.687487 -2.824172 -11.575820 -0.830129 5.706214 -0.000014 -0.000000 0.000004 0.000000 0.000000 0.000000 -0.029464 -1.076522 -0.396306 1.303021 0.063234 -0.039457 -0.812834 0.076874 0.083535 0.000000 0.000000 0.000000 0.000000 0.000000 0.000000 -0.813225 0.075474 0.080566 -0.300028 -0.370209 -0.289494 1.348865 -2.717223 3.887562 0.000000 0.000000 0.000000 -0.813225 0.075474 0.080566 0.995268 -13.605457 -11.218930 0.000000 0.000000 0.000000 13.760372 -20.612743 -67.419035 -0.000002 -18.796436 0.000001 0.000000 0.000000 0.000000 -0.813225 0.075474 0.080566 1.793079 9.864632 11.018080 0.000000 0.000000 0.000000 6.610201 27.948567 62.187322 -0.000004 12.088191 -0.000001 0.000000 0.000000 0.000000 
0.616174 98.478409 -0.393627 0.000000 0.000000 0.000000 0.365610 -1.647585 -0.873553 -16.406405 2.363937 7.951083 27.964762 7.387232 1.730154 -10.837955 1.380598 -10.348303 -0.000024 -0.000002 0.000033 0.000000 0.000000 0.000000 0.365610 -1.647585 -0.873553 -15.829599 1.686544 -1.629875 26.798257 -0.965512 -2.625467 -11.258798 -0.812681 5.668967 -0.000037 0.000001 -0.000003 0.000000 0.000000 0.000000 0.365610 -1.647585 -0.873553 1.594292 0.116482 -0.086154 -0.467653 0.134619 -0.012821 0.000000 0.000000 0.000000 0.000000 0.000000 0.000000 -0.468245 0.130838 -0.017873 -0.378661 -0.480261 -0.031796 0.717266 -3.075976 4.437737 0.000000 0.000000 0.000000 -0.468245 0.130838 -0.017873 1.012075 -14.095812 -11.045087 0.000000 0.000000 0.000000 12.935870 -20.528675 -67.378594 -0.000010 -19.391918 0.000001 0.000000 0.000000 0.000000 -0.468245 0.130838 -0.017873 1.838476 10.195061 11.119195 0.000000 0.000000 0.000000 6.355830 28.999177 61.602822 -0.000000 12.344857 0.000019 0.000000 0.000000 0.000000 
0.596679 98.291595 -0.836430 0.000000 0.000000 0.000000 0.749828 -2.516612 -1.579167 -17.770585 2.247221 8.757651 29.223538 7.972741 1.879628 -11.056816 1.419212 -10.574224 -0.000039 0.000003 0.000046 0.000000 0.000000 0.000000 0.749828 -2.516612 -1.579167 -16.938130 2.414833 -0.741976 27.107520 -1.018829 -2.391489 -10.892985 -0.781916 5.538732 -0.000027 0.000001 -0.000003 0.000000 0.000000 0.000000 0.749828 -2.516612 -1.579167 1.969528 0.140760 -0.114408 -0.101663 0.160545 -0.115332 0.000000 0.000000 0.000000 0.000000 0.000000 0.000000 -0.102162 0.153621 -0.121393 -0.283408 -0.579356 0.331735 -0.228185 -3.356869 5.060053 0.000000 0.000000 0.000000 -0.102162 0.153621 -0.121393 1.026938 -14.637584 -10.975166 0.000000 0.000000 0.000000 12.099718 -19.932903 -67.040240 0.000008 -19.996492 0.000009 0.000000 0.000000 0.000000 -0.102162 0.153621 -0.121393 1.946486 11.098901 11.250870 0.000000 0.000000 0.000000 6.051348 29.630856 60.787481 -0.000002 13.060257 -0.000001 0.000000 0.000000 0.000000 
